<?xml version="1.0" encoding="UTF-8"?>
<svg version="1.1" xmlns="http://www.w3.org/2000/svg" width="376" height="412">
<path d="M0 0 C124.08 0 248.16 0 376 0 C376 135.96 376 271.92 376 412 C251.92 412 127.84 412 0 412 C0 276.04 0 140.08 0 0 Z " fill="#FBFCFC" transform="translate(0,0)"/>
<path d="M0 0 C0.12844202 4.20813536 -0.27083968 7.81381449 -1.28515625 11.89453125 C-2.47073645 16.79886976 -3.61012848 21.70647718 -4.68359375 26.63671875 C-4.82575821 27.28843048 -4.96792267 27.94014221 -5.11439514 28.61160278 C-5.40674051 29.95201596 -5.69875461 31.29250143 -5.990448 32.63305664 C-6.7524006 36.13463692 -7.51688645 39.63566411 -8.28125 43.13671875 C-8.4300914 43.81870331 -8.5789328 44.50068787 -8.73228455 45.20333862 C-10.46561422 53.14059149 -12.22710042 61.07150497 -14 69 C-18.24908336 67.40153531 -20.82225739 64.1869608 -23.75 60.875 C-24.25660156 60.31167969 -24.76320312 59.74835938 -25.28515625 59.16796875 C-26.52884532 57.78348469 -27.76516305 56.39238512 -29 55 C-35.54420533 57.18140178 -39.24264086 67.46304067 -42.3125 73.421875 C-47.73527537 84.28227327 -51.8453958 95.28590307 -55 107 C-55.3403125 108.19625 -55.680625 109.3925 -56.03125 110.625 C-64.59458177 146.78128971 -55.23361435 187.36281529 -37 219 C-32.05909459 226.91559426 -26.31115791 234.08947893 -19.94140625 240.90234375 C-18 243 -18 243 -15.625 246.0625 C7.6263175 272.08183149 46.83304225 286.3920813 80.875 288.453125 C112.01216469 289.46960727 143.31776732 280.9653196 169.45996094 263.93994141 C171 263 171 263 172 263 C171.28621973 271.13709505 169.67226118 279.01731928 168 287 C169.51980469 286.67515625 169.51980469 286.67515625 171.0703125 286.34375 C172.42181004 286.06218801 173.77337625 285.7809555 175.125 285.5 C175.79015625 285.35691406 176.4553125 285.21382813 177.140625 285.06640625 C181.16056422 284.2387717 184.89904899 283.84669342 189 284 C178.48161356 295.2353624 161.14935395 301.6995767 147 307 C146.35256836 307.24830566 145.70513672 307.49661133 145.03808594 307.75244141 C104.4519247 323.14020564 57.170884 320.2018584 17.8125 302.75 C-26.81331545 282.18975473 -59.32939443 246.60201433 -77 201 C-77.33797607 200.13721436 -77.67595215 199.27442871 -78.02416992 198.38549805 C-80.51115318 191.82975637 -82.25510086 185.29551388 -83.6875 178.4375 C-83.89955078 177.47392578 -84.11160156 176.51035156 -84.33007812 175.51757812 C-94.08560722 129.87893568 -82.79398324 82.10003287 -57.87451172 43.24511719 C-55.99851332 40.43498674 -54.04224513 37.69143564 -52 35 C-53.50516035 31.2201872 -55.68301614 29.39542229 -58.875 26.9375 C-59.73867188 26.26589844 -60.60234375 25.59429687 -61.4921875 24.90234375 C-63.07952254 23.69824381 -64.68707675 22.51997163 -66.3203125 21.37890625 C-67.15175781 20.69634766 -67.15175781 20.69634766 -68 20 C-68 19.34 -68 18.68 -68 18 C-66.25203125 17.58041016 -66.25203125 17.58041016 -64.46875 17.15234375 C-51.87228208 14.0876334 -39.44383005 10.56975958 -27.01464844 6.890625 C-22.07687446 5.43184629 -17.13391021 3.99169261 -12.1875 2.5625 C-11.30392822 2.303479 -10.42035645 2.04445801 -9.51000977 1.77758789 C-8.69588623 1.54289795 -7.8817627 1.30820801 -7.04296875 1.06640625 C-5.97598755 0.7561853 -5.97598755 0.7561853 -4.88745117 0.43969727 C-3 0 -3 0 0 0 Z " fill="#3289C5" transform="translate(100,58)"/>
<path d="M0 0 C1.875 0.25 1.875 0.25 4 1 C6.11742706 3.96439789 6.32195112 6.42687031 6 10 C4.57923528 12.44206806 2.92914889 14.57342651 1.21484375 16.81640625 C-0.20401922 18.86571246 -0.20401922 18.86571246 0.22387695 20.90478516 C1.74084104 24.99996786 5.21726481 27.77119776 8.25 30.8125 C8.91902344 31.51826172 9.58804688 32.22402344 10.27734375 32.95117188 C10.93347656 33.61310547 11.58960938 34.27503906 12.265625 34.95703125 C12.86149414 35.56522705 13.45736328 36.17342285 14.07128906 36.80004883 C15.98073136 38.24943418 15.98073136 38.24943418 18.52636719 37.82299805 C21.25666725 37.02753605 21.25666725 37.02753605 24.3125 34.875 C27.13334607 33.18001793 29.02319502 32.72589125 32.3125 33 C36 34 36 34 37.1640625 35.7734375 C38.02011617 38.05358045 38.58737079 40.2373759 39.0625 42.625 C39.53622974 44.98190335 39.92328158 46.84656316 41 49 C49.25 49 57.5 49 66 49 C66.86625 45.596875 66.86625 45.596875 67.75 42.125 C69.46438398 35.38992008 69.46438398 35.38992008 71.99609375 33.546875 C74.77653462 32.78808022 76.24630942 33.10344958 79 34 C80.72668611 35.03763297 82.40715819 36.10379729 84.05859375 37.2578125 C87.15946897 38.44325776 88.83523794 38.00783737 92 37 C94.72356429 35.04194003 97.02680172 32.76241662 99.375 30.375 C100.01566406 29.77042969 100.65632813 29.16585937 101.31640625 28.54296875 C104.61362863 25.24574637 105.91408862 23.82183153 106.4140625 19.0390625 C106.27742187 18.03617188 106.14078125 17.03328125 106 16 C122.26491803 14.92590164 122.26491803 14.92590164 126.4609375 17.5234375 C127.87918533 19.28724826 128.93260036 21.0129212 130 23 C133.94677697 24.97338848 138.69839523 24.44290148 143 24 C147.25712514 21.90878063 149.07308718 20.22677651 151 16 C155.3231808 15.85120108 159.64499003 15.74258138 163.9699707 15.67041016 C165.43963596 15.64031462 166.90912271 15.59942594 168.37817383 15.54736328 C170.49605341 15.4742093 172.61155245 15.44047786 174.73046875 15.4140625 C176.00301514 15.3826416 177.27556152 15.3512207 178.58666992 15.31884766 C183.34462673 16.26832906 184.19932307 18.12675597 187 22 C190.36999202 24.24666134 191.56105462 24.2457371 195.5 24.1875 C196.4590625 24.18105469 197.418125 24.17460937 198.40625 24.16796875 C201.11497767 24.10292931 201.11497767 24.10292931 204 23 C207.57897508 30.56032014 211.11679888 38.1345197 214.4375 45.8125 C215.17806641 47.52373047 215.17806641 47.52373047 215.93359375 49.26953125 C217 52 217 52 217 54 C213.65678045 52.88559348 212.93980381 52.02527657 210.75 49.375 C207.77345191 45.84629906 204.63902483 42.61490259 201.28515625 39.4453125 C200 38 200 38 200 36 C199.34 36 198.68 36 198 36 C197.89985596 36.68280029 197.79971191 37.36560059 197.6965332 38.0690918 C196.45277079 46.05580907 194.671223 53.86197481 192.71487427 61.69866943 C191.81238175 65.3160554 190.92467305 68.93704268 190.0390625 72.55859375 C189.86337234 73.27682312 189.68768219 73.99505249 189.50666809 74.73504639 C187.68967881 82.20552351 186.04596567 89.71100666 184.4597168 97.23364258 C184.27836182 98.0923999 184.09700684 98.95115723 183.91015625 99.8359375 C183.75683838 100.57376465 183.60352051 101.3115918 183.44555664 102.07177734 C183 104 183 104 182 107 C181.34 107 180.68 107 180 107 C177.79341483 101.77181923 175.58805932 96.54312204 173.38378906 91.31396484 C172.63542016 89.5390865 171.88672887 87.76434404 171.13769531 85.98974609 C160 59.60083333 160 59.60083333 160 57 C97.135 57.495 97.135 57.495 33 58 C28.05 70.21 23.1 82.42 18 95 C15.525 100.94 15.525 100.94 13 107 C7.5194216 105.6298554 4.28908748 102.57423957 0 99 C-0.79921875 98.33742188 -1.5984375 97.67484375 -2.421875 96.9921875 C-9.40728142 90.96338133 -15.292671 84.2172777 -21 77 C-21.680625 76.14664063 -22.36125 75.29328125 -23.0625 74.4140625 C-27.04717789 69.00892073 -27.04717789 69.00892073 -26.86572266 65.12841797 C-25.93327904 59.35015813 -23.29467496 54.07923584 -20.9765625 48.75 C-20.47458344 47.57791992 -19.97260437 46.40583984 -19.45541382 45.19824219 C-18.12436699 42.09450683 -16.78615098 38.99407378 -15.4442749 35.89501953 C-14.08698148 32.75553909 -12.73919281 29.61198588 -11.390625 26.46875 C-8.98540287 20.86742644 -6.57202382 15.26968452 -4.15411377 9.67382812 C-2.76337075 6.451782 -1.37997738 3.22666944 0 0 Z " fill="#368CC5" transform="translate(97,207)"/>
<path d="M0 0 C5.61 0 11.22 0 17 0 C17.680625 1.8253125 17.680625 1.8253125 18.375 3.6875 C18.65730469 4.41710937 18.93960938 5.14671875 19.23046875 5.8984375 C20 8 20 8 20.6875 10.8125 C22.51537292 13.85895486 24.59375421 14.5097599 27.9140625 15.55859375 C30.97375358 16.20605647 33.02866678 15.96891301 36 15 C37.010625 14.278125 38.02125 13.55625 39.0625 12.8125 C42 11 42 11 44.4375 11.3125 C48.88414842 14.24078067 52.79734109 17.65481512 55.25 22.4375 C54.90274265 25.99688782 53.06166913 28.10510946 51.08984375 31.02734375 C49.75033327 33.06221068 49.75033327 33.06221068 50.0625 36 C50.5265625 37.485 50.5265625 37.485 51 39 C51.36023814 40.45684543 51.71420929 41.91525217 52.0625 43.375 C52.371875 44.57125 52.68125 45.7675 53 47 C53.67546875 47.04898438 54.3509375 47.09796875 55.046875 47.1484375 C55.93890625 47.22320312 56.8309375 47.29796875 57.75 47.375 C58.63171875 47.44460937 59.5134375 47.51421875 60.421875 47.5859375 C62.99066382 47.99850055 64.75841015 48.71160957 67 50 C67.05382106 52.62527189 67.09358313 55.24944713 67.125 57.875 C67.14175781 58.62136719 67.15851563 59.36773437 67.17578125 60.13671875 C67.1933959 62.09194461 67.10320189 64.04742021 67 66 C64.43722517 68.56277483 63.17390547 68.23359423 59.625 68.5 C55.31788159 69.17960622 55.31788159 69.17960622 52.3515625 72.17578125 C50.42436746 76.78874811 49.53068152 80.11572702 51 85 C51.70125 85.99 52.4025 86.98 53.125 88 C55 91 55 91 54.87890625 93.3828125 C53.77700048 96.66404301 52.22795997 98.40694208 49.8125 100.875 C49.05582031 101.67679687 48.29914063 102.47859375 47.51953125 103.3046875 C45 105 45 105 41.890625 104.890625 C39 104 39 104 35.9375 101.875 C33.24684351 99.77167454 33.24684351 99.77167454 30.625 100.0625 C29.75875 100.371875 28.8925 100.68125 28 101 C27.33355469 101.10828125 26.66710937 101.2165625 25.98046875 101.328125 C23.47856352 101.88710923 21.99183168 102.3625708 20 104 C18.97351604 107.15339353 18.56632774 110.08459072 18.25390625 113.3828125 C18 116 18 116 17 117 C14.13732433 117.07325168 11.299281 117.09238205 8.4375 117.0625 C7.63119141 117.05798828 6.82488281 117.05347656 5.99414062 117.04882812 C3.99606244 117.03700518 1.99802217 117.01906914 0 117 C-0.18433594 116.10796875 -0.36867187 115.2159375 -0.55859375 114.296875 C-2.0447472 107.55829417 -2.0447472 107.55829417 -6.05859375 102.2109375 C-10.5124443 100.12296034 -14.25649964 99.31342209 -19 101 C-20.03125 101.70125 -21.0625 102.4025 -22.125 103.125 C-25 105 -25 105 -26.91796875 104.84765625 C-32.05137132 102.75769686 -36.17049176 97.93551923 -38.3125 92.9375 C-37.91556951 89.20635342 -36.36809328 87.59958482 -34.09375 84.71875 C-32.73156225 82.91771105 -32.73156225 82.91771105 -33 80 C-33.33 79.01 -33.66 78.02 -34 77 C-34.4021875 75.1746875 -34.4021875 75.1746875 -34.8125 73.3125 C-37.44944877 69.31940614 -38.60778097 69.22349336 -43.125 68.125 C-44.20007813 67.92132813 -45.27515625 67.71765625 -46.3828125 67.5078125 C-49 67 -49 67 -50 66 C-50.07325168 63.13732433 -50.09238205 60.299281 -50.0625 57.4375 C-50.05798828 56.63119141 -50.05347656 55.82488281 -50.04882812 54.99414062 C-50.03700518 52.99606244 -50.01906914 50.99802217 -50 49 C-46.74669202 47.86821539 -43.79000673 46.96741484 -40.375 46.4375 C-35.98443821 44.56744591 -35.29876711 42.55105941 -33.53125 38.2890625 C-32.92907592 35.69440068 -33.03223858 34.4642997 -34 32 C-35.25810623 30.17294127 -36.63017875 28.49370538 -38.0390625 26.78125 C-39 25 -39 25 -38.94921875 23.11328125 C-37.57274094 20.04877715 -35.54180438 18.06938042 -33.1875 15.6875 C-32.31480469 14.78386719 -31.44210938 13.88023437 -30.54296875 12.94921875 C-28 11 -28 11 -25.8515625 11.07421875 C-24 12 -24 12 -21.1875 14.125 C-18.13150835 16.28519882 -18.13150835 16.28519882 -14.625 16 C-8.34282514 14.4402043 -8.34282514 14.4402043 -3 11 C-1.40784077 7.31680498 -0.75882484 3.98383043 0 0 Z " fill="#338AC5" transform="translate(142,134)"/>
<path d="M0 0 C4.47157987 3.68853823 6.47316102 8.48524897 8.875 13.625 C9.53363037 15.02745972 9.53363037 15.02745972 10.20556641 16.45825195 C16.81698719 30.82926476 20.96650299 45.50583065 24 61 C24.1750708 61.86874756 24.3501416 62.73749512 24.53051758 63.63256836 C25.14234558 68.02099455 25.22027456 72.34320055 25.2734375 76.76953125 C25.29229759 78.18762589 25.29229759 78.18762589 25.3115387 79.6343689 C25.73811404 119.42132588 25.73811404 119.42132588 20 138 C19.74831055 138.82773926 19.49662109 139.65547852 19.23730469 140.50830078 C14.93174127 154.17507977 9.10087527 168.94788832 1.078125 180.8515625 C-0.23016141 182.90573823 -0.23016141 182.90573823 0.40234375 184.9609375 C2.75836231 187.96788539 5.59644619 190.23683181 8.5625 192.625 C14.88006757 197.76013514 14.88006757 197.76013514 16 200 C13.18651417 201.87565722 11.35251798 202.60027945 8.15234375 203.48046875 C7.1670166 203.75407227 6.18168945 204.02767578 5.16650391 204.30957031 C4.10093262 204.59928711 3.03536133 204.88900391 1.9375 205.1875 C0.28500244 205.64334473 0.28500244 205.64334473 -1.40087891 206.10839844 C-12.6100908 209.19152584 -23.83627381 212.21399659 -35.06933594 215.20898438 C-37.08066505 215.75186228 -39.08901949 216.30584643 -41.09472656 216.86914062 C-42.07666992 217.14435547 -43.05861328 217.41957031 -44.0703125 217.703125 C-45.38539795 218.07679199 -45.38539795 218.07679199 -46.72705078 218.45800781 C-49 219 -49 219 -52 219 C-51.37205897 209.71940089 -49.32136961 200.85039501 -47.25 191.8125 C-46.88736117 190.21011008 -46.52538669 188.60756968 -46.1640625 187.00488281 C-45.62276293 184.6044835 -45.08102389 182.20419344 -44.5369873 179.80441284 C-42.98571635 172.96122577 -41.48202767 166.1085441 -40 159.25 C-39.7927832 158.29327393 -39.58556641 157.33654785 -39.37207031 156.35083008 C-38.91389409 154.23406392 -38.45679408 152.11706485 -38 150 C-37.34 150 -36.68 150 -36 150 C-34.484375 151.5390625 -34.484375 151.5390625 -32.75 153.625 C-29.65323448 157.27360004 -26.42455589 160.65896986 -23 164 C-4.1217544 137.11280172 0.85347012 98.15061321 -4.4375 66.37231445 C-8.23599161 46.99087623 -14.75590518 29.40771102 -24 12 C-22.74896484 11.67128906 -22.74896484 11.67128906 -21.47265625 11.3359375 C-13.17023494 8.99642359 -6.1707227 6.1707227 0 0 Z " fill="#3489C4" transform="translate(337,109)"/>
<path d="M0 0 C0.67997543 -0.00379669 1.35995087 -0.00759338 2.06053162 -0.01150513 C4.30766965 -0.01891359 6.55351408 0.00247148 8.80053711 0.02490234 C10.3608739 0.02728647 11.9212136 0.02819216 13.48155212 0.02767944 C16.75090516 0.03080779 20.01981975 0.04737665 23.2890625 0.07421875 C27.48481307 0.10822707 31.68008238 0.11584659 35.87595463 0.11432838 C39.09725052 0.11487154 42.31844068 0.12582939 45.53970146 0.14033127 C47.08709348 0.14670581 48.63449749 0.15063969 50.18190193 0.15211868 C52.34152883 0.15644327 54.50063977 0.17392432 56.66015625 0.1953125 C57.89020889 0.2029361 59.12026154 0.21055969 60.3875885 0.21841431 C63.26538086 0.48583984 63.26538086 0.48583984 65.26538086 2.48583984 C65.50588989 4.35879517 65.50588989 4.35879517 65.49243164 6.66015625 C65.49228058 7.52089752 65.49212952 8.38163879 65.49197388 9.26846313 C65.48165131 10.19871307 65.47132874 11.12896301 65.46069336 12.08740234 C65.45786346 13.03900238 65.45503357 13.99060242 65.45211792 14.97103882 C65.44090075 18.01776576 65.41579349 21.06420138 65.39038086 24.11083984 C65.38035304 26.17333561 65.37122685 28.23583596 65.36303711 30.29833984 C65.3409564 35.36095252 65.30641616 40.42334675 65.26538086 45.48583984 C66.25538086 45.15583984 67.24538086 44.82583984 68.26538086 44.48583984 C68.59538086 33.26583984 68.92538086 22.04583984 69.26538086 10.48583984 C74.06069336 10.33115234 74.06069336 10.33115234 78.95288086 10.17333984 C80.45081177 10.10505981 80.45081177 10.10505981 81.97900391 10.03540039 C86.30429478 9.96785177 88.54441685 9.94111148 92.07788086 12.61083984 C93.16069336 14.03396484 93.16069336 14.03396484 94.26538086 15.48583984 C95.58989258 16.93410156 95.58989258 16.93410156 96.94116211 18.41162109 C105.98230701 29.57350774 105.38371923 40.63736982 104.26538086 54.48583984 C101.95538086 54.48583984 99.64538086 54.48583984 97.26538086 54.48583984 C96.89413086 53.41333984 96.52288086 52.34083984 96.14038086 51.23583984 C94.39747938 47.20180028 92.25730988 45.44266779 88.26538086 43.48583984 C84.37219643 42.83697577 82.63237479 43.30594086 79.07788086 45.04833984 C75.55053418 47.74699937 75.55053418 47.74699937 73.26538086 54.48583984 C62.37538086 54.48583984 51.48538086 54.48583984 40.26538086 54.48583984 C38.94538086 51.84583984 37.62538086 49.20583984 36.26538086 46.48583984 C32.78705071 43.39399083 29.68483548 43.04576032 25.19116211 43.28271484 C22.30304224 43.58734412 20.67474039 43.76486875 18.26538086 45.48583984 C17.27538086 48.45583984 16.28538086 51.42583984 15.26538086 54.48583984 C7.01538086 54.48583984 -1.23461914 54.48583984 -9.73461914 54.48583984 C-10.73461914 49.48583984 -10.73461914 49.48583984 -10.20336914 47.24365234 C-7.94160857 44.53675804 -5.66421106 44.7174567 -2.23461914 44.36083984 C2.54767479 44.07756472 2.54767479 44.07756472 6.26538086 41.48583984 C6.72020853 37.69237494 6.58941436 33.86592855 6.57788086 30.04833984 C6.59399414 28.98550781 6.61010742 27.92267578 6.62670898 26.82763672 C6.62735352 25.80863281 6.62799805 24.78962891 6.62866211 23.73974609 C6.63164307 22.80461182 6.63462402 21.86947754 6.63769531 20.90600586 C6.19865369 18.05209139 5.56380881 17.18094755 3.26538086 15.48583984 C0.43821858 14.81370617 -2.35732346 14.47816439 -5.23852539 14.11083984 C-7.73461914 13.48583984 -7.73461914 13.48583984 -9.73461914 10.48583984 C-10.07574243 7.27928091 -10.10801059 5.2203214 -8.63600159 2.32479858 C-5.85290576 -0.36692628 -3.82393713 -0.00885435 0 0 Z " fill="#1B6A9E" transform="translate(207.734619140625,162.51416015625)"/>
<path d="M0 0 C0.66 0 1.32 0 2 0 C2.33373375 0.77355835 2.33373375 0.77355835 2.67420959 1.56274414 C5.02670405 7.01534701 7.37977466 12.467701 9.7331543 17.91992188 C10.60699481 19.94459992 11.48069684 21.96933774 12.35424805 23.99414062 C13.62250378 26.93375804 14.89131318 29.87313606 16.16015625 32.8125 C16.57302887 33.76995117 16.98590149 34.72740234 17.4112854 35.71386719 C19.31770153 40.12967173 21.23343419 44.54060196 23.18310547 48.9375 C23.51289902 49.68281982 23.84269257 50.42813965 24.18247986 51.19604492 C24.79067662 52.56745136 25.4019469 53.93750051 26.01686096 55.3059082 C28 59.7792348 28 59.7792348 28 62 C9.19 62 -9.62 62 -29 62 C-30.69125 57.66875 -32.3825 53.3375 -34.125 48.875 C-38.96764971 32.9547102 -38.96764971 32.9547102 -47 19 C-47.23074219 19.72590332 -47.46148437 20.45180664 -47.69921875 21.19970703 C-48.77155678 24.51791507 -49.88520661 27.82082549 -51 31.125 C-51.36222656 32.26710937 -51.72445312 33.40921875 -52.09765625 34.5859375 C-54.33658127 41.11297316 -56.32753612 45.27955479 -62.15722656 49.14013672 C-64 50 -64 50 -66.75 50 C-67.4925 49.67 -68.235 49.34 -69 49 C-69.68320313 48.76023438 -70.36640625 48.52046875 -71.0703125 48.2734375 C-73 47 -73 47 -73.7578125 44.5390625 C-73.87898437 43.57742187 -74.00015625 42.61578125 -74.125 41.625 C-74.60523058 37.98896846 -75.16675123 35.19682223 -77 32 C-76.34 31.34 -75.68 30.68 -75 30 C-74.35232207 27.42938689 -74.35232207 27.42938689 -74 25 C-73.01 25.474375 -72.02 25.94875 -71 26.4375 C-69.08488711 27.09802318 -69.08488711 27.09802318 -67 27 C-62.94428673 24.70701723 -59.5671323 21.9570472 -58.24609375 17.3984375 C-57.99575362 14.95861463 -58.22939136 13.31182592 -59 11 C-58.030625 10.649375 -57.06125 10.29875 -56.0625 9.9375 C-52.60565398 8.24996333 -52.60565398 8.24996333 -52.125 4.3125 C-52.08375 3.219375 -52.0425 2.12625 -52 1 C-49.37098712 2.52206009 -47.15634036 3.84365964 -45 6 C-42.56282742 5.72965366 -42.56282742 5.72965366 -40 5 C-38.8553125 4.7215625 -38.8553125 4.7215625 -37.6875 4.4375 C-37.130625 4.293125 -36.57375 4.14875 -36 4 C-35.01 6.31 -34.02 8.62 -33 11 C-27.72 11 -22.44 11 -17 11 C-16.67 8.69 -16.34 6.38 -16 4 C-15.278125 4.144375 -14.55625 4.28875 -13.8125 4.4375 C-12.884375 4.623125 -11.95625 4.80875 -11 5 C-10.195625 5.309375 -9.39125 5.61875 -8.5625 5.9375 C-5.99459596 6.27651963 -5.99459596 6.27651963 -4.421875 4.7265625 C-3.36085178 3.6294851 -2.32939375 2.50291255 -1.33203125 1.34765625 C-0.89246094 0.90292969 -0.45289063 0.45820312 0 0 Z " fill="#368CC5" transform="translate(239,95)"/>
<path d="M0 0 C6.72031476 3.626434 12.65144596 8.37026656 15.43359375 15.65625 C17.45205253 24.58260185 17.45617172 34.3055339 12.6796875 42.3203125 C8.53277094 47.74936751 2.95315505 53.0643174 -3.9375 54.4375 C-14.58499702 55.3406927 -22.20467114 54.63963636 -30.625 48 C-36.78584874 42.19089522 -40.10792397 34.72669557 -40.4375 26.25 C-39.86335552 17.04896664 -36.63351873 10.73559959 -29.9375 4.4375 C-21.64260172 -2.41259018 -10.15998397 -4.16363616 0 0 Z " fill="#FCFCFC" transform="translate(161.9375,165.5625)"/>
<path d="M0 0 C3.3 0 6.6 0 10 0 C10.309375 0.969375 10.61875 1.93875 10.9375 2.9375 C11.69523342 5.84065792 11.69523342 5.84065792 13 7 C16.94836905 7.2632246 19.60379269 7.08997373 23 5 C24.98 6.98 26.96 8.96 29 11 C28.67 11.556875 28.34 12.11375 28 12.6875 C26.8409302 15.36784892 26.70317542 17.10596033 27 20 C28.70892499 23.31460705 28.70892499 23.31460705 32.125 23.6875 C33.07375 23.790625 34.0225 23.89375 35 24 C35 27.63 35 31.26 35 35 C31.535 35.495 31.535 35.495 28 36 C27.07529447 40.71599818 26.77076223 43.67265609 29 48 C26.75 50.5625 26.75 50.5625 24 53 C22 52.875 22 52.875 20 52 C16.59612776 51.14903194 14.35316742 50.88227753 11 52 C10.67 54.31 10.34 56.62 10 59 C6.7 59 3.4 59 0 59 C-0.0825 58.05125 -0.165 57.1025 -0.25 56.125 C-0.67031903 52.95792238 -0.67031903 52.95792238 -2.8125 51.5625 C-5.99396317 50.74440947 -8.0034921 51.54996418 -10.9375 52.875 C-13 53 -13 53 -15.8125 50.8125 C-18 48 -18 48 -17.875 45.9375 C-17.441875 44.9784375 -17.441875 44.9784375 -17 44 C-16.16423602 41.56868661 -15.92255769 40.3388101 -16.5 37.8125 C-18.00937227 35.60414056 -18.00937227 35.60414056 -21.625 35.25 C-22.73875 35.1675 -23.8525 35.085 -25 35 C-25 31.37 -25 27.74 -25 24 C-21.535 23.505 -21.535 23.505 -18 23 C-16.1999012 18.09596038 -16.1999012 18.09596038 -16.875 13.0625 C-17.24625 12.381875 -17.6175 11.70125 -18 11 C-15.69 9.02 -13.38 7.04 -11 5 C-10.01 5.66 -9.02 6.32 -8 7 C-4.85778033 6.68493373 -4.85778033 6.68493373 -2 6 C-1.34 4.02 -0.68 2.04 0 0 Z " fill="#3C8BC2" transform="translate(301,44)"/>
<path d="M0 0 C2.97 0 5.94 0 9 0 C9.474375 0.969375 9.94875 1.93875 10.4375 2.9375 C11.70193947 5.80477437 11.70193947 5.80477437 13 7 C16.49734228 6.61140641 19.65788261 6.11403913 23 5 C25.5625 7.25 25.5625 7.25 28 10 C27.875 12 27.875 12 27 14 C26.26259783 16.51948778 26.26259783 16.51948778 26 19 C27.70892499 22.31460705 27.70892499 22.31460705 31.125 22.6875 C32.07375 22.790625 33.0225 22.89375 34 23 C34 26.63 34 30.26 34 34 C31.69 34 29.38 34 27 34 C26.7763663 35.41433206 26.57173524 36.83167618 26.375 38.25 C26.25898438 39.03890625 26.14296875 39.8278125 26.0234375 40.640625 C25.99680605 43.32152459 26.63407916 44.72694089 28 47 C25.75 49.5625 25.75 49.5625 23 52 C21 51.875 21 51.875 19 51 C16.48051222 50.26259783 16.48051222 50.26259783 14 50 C10.39345961 52.40436026 10.14547068 53.94679607 9 58 C6.03 58 3.06 58 0 58 C-0.2475 57.05125 -0.495 56.1025 -0.75 55.125 C-1.70106607 51.97569435 -1.70106607 51.97569435 -3.875 50.5625 C-7.01760997 49.73063265 -9.03749608 50.56532081 -11.9375 51.875 C-12.618125 51.91625 -13.29875 51.9575 -14 52 C-16.75 49.5625 -16.75 49.5625 -19 47 C-18.67 46.443125 -18.34 45.88625 -18 45.3125 C-16.31413638 41.41394039 -16.81686783 37.99307108 -18 34 C-19.98 34 -21.96 34 -24 34 C-24 30.7 -24 27.4 -24 24 C-22.02 23.34 -20.04 22.68 -18 22 C-16.9032702 16.35496446 -16.9032702 16.35496446 -19 11 C-16.69 9.02 -14.38 7.04 -12 5 C-11.01 5.66 -10.02 6.32 -9 7 C-6.93089407 7.02749478 -6.93089407 7.02749478 -4.8125 6.625 C-2.9253125 6.315625 -2.9253125 6.315625 -1 6 C-0.67 4.02 -0.34 2.04 0 0 Z " fill="#3B8CC4" transform="translate(209,44)"/>
<path d="M0 0 C2.97 0 5.94 0 9 0 C9.4125 0.969375 9.825 1.93875 10.25 2.9375 C11.65700444 6.03085668 11.65700444 6.03085668 13.875 7 C16.60964304 7 18.54642891 6.15863079 21 5 C23.0625 6.4375 23.0625 6.4375 25 9 C25.06103689 12.07403968 24.51199547 14.97811369 24 18 C24 18.99 24 19.98 24 21 C26.31 21.33 28.62 21.66 31 22 C31 24.97 31 27.94 31 31 C28.03 31.495 28.03 31.495 25 32 C24.05925848 36.62173487 24.05925848 36.62173487 24.6875 41.1875 C24.790625 41.785625 24.89375 42.38375 25 43 C23.0625 45.25 23.0625 45.25 21 47 C20.01 46.67 19.02 46.34 18 46 C15.66700175 45.96045766 13.33291811 45.95598268 11 46 C10.34 47.98 9.68 49.96 9 52 C6.03 52 3.06 52 0 52 C0 50.02 0 48.04 0 46 C-1.258125 45.79375 -2.51625 45.5875 -3.8125 45.375 C-4.52019531 45.25898437 -5.22789062 45.14296875 -5.95703125 45.0234375 C-8.31755824 44.80422152 -8.31755824 44.80422152 -11 47 C-13.5625 45 -13.5625 45 -16 42 C-16.1026482 39.17447321 -15.55175151 36.80473684 -15 34 C-15.33 33.34 -15.66 32.68 -16 32 C-19.02934491 31.34227572 -19.02934491 31.34227572 -22 31 C-22 28.03 -22 25.06 -22 22 C-19.69 21.34 -17.38 20.68 -15 20 C-13.9742741 15.58937864 -13.96315288 13.07369424 -16 9 C-14.37660195 7.29115995 -12.70680947 5.62553283 -11 4 C-10.34 4 -9.68 4 -9 4 C-9 4.66 -9 5.32 -9 6 C-6.64632287 6.6878236 -6.64632287 6.6878236 -4 7 C-0.77595022 5.33045181 -0.77595022 5.33045181 -0.3125 2.375 C-0.209375 1.59125 -0.10625 0.8075 0 0 Z " fill="#3C8BC3" transform="translate(151,70)"/>
<path d="M0 0 C4.02414248 1.81086412 6.44946154 4.20083127 8.9375 7.8125 C10.23228058 11.69684175 10.91802497 14.99950092 10 19 C7.80265081 23.28898399 5.37461987 26.29806645 1.0625 28.5 C-4.07384149 29.33858637 -7.52262894 29.76709651 -12.25 27.3125 C-15.84783402 24.28704867 -17.73858433 21.77103232 -18.43359375 17.0625 C-18.44412499 8.80600462 -18.44412499 8.80600462 -16.3125 4.9375 C-11.01289292 0.49728866 -6.94655842 -1.26084793 0 0 Z " fill="#F6F9FA" transform="translate(311,59)"/>
<path d="M0 0 C9.57 0 19.14 0 29 0 C27 4 27 4 25 6 C25.28552357 7.89667109 25.28552357 7.89667109 26 10 C26.34060811 11.66519519 26.67558396 13.33157466 27 15 C25.02 15.66 23.04 16.32 21 17 C20.67 20.63 20.34 24.26 20 28 C19.34 28 18.68 28 18 28 C17.236875 27.175 16.47375 26.35 15.6875 25.5 C13.28201966 22.78550653 13.28201966 22.78550653 10.375 22.625 C7.85957587 22.95547527 7.85957587 22.95547527 5 24 C4.34 22.02 3.68 20.04 3 18 C-0.3 17.67 -3.6 17.34 -7 17 C-5.1854754 10.37698523 -3.51679294 6.15438765 0 0 Z " fill="#378AC4" transform="translate(160,48)"/>
<path d="M0 0 C3.4812511 2.32083406 4.99212405 4.09421919 6.8125 7.875 C7.63329525 12.47312851 7.30973859 16.53244004 5.25 20.75 C2.28899144 24.54616482 0.46157384 25.6555708 -4.1875 26.875 C-8.80980858 27.05735523 -12.16584989 26.50537986 -16.125 24.0625 C-20.3604951 19.57030823 -20.68284548 15.59473343 -20.5703125 9.57421875 C-19.95723919 5.25142635 -18.46954155 3.71943601 -15.1875 0.875 C-10.26170444 -1.97677638 -5.29472077 -1.86872498 0 0 Z " fill="#F8FAFA" transform="translate(220.1875,60.125)"/>
<path d="M0 0 C3.15689734 1.60714774 5.19415756 2.97438234 7.375 5.75 C8.67666109 10.43597991 8.72161982 14.45367182 6.6875 18.8125 C4.21886433 22.01258327 2.89329386 23.70223538 -1 25 C-5.25160217 25.40109454 -7.5006973 25.26378256 -11.3125 23.25 C-14.49697644 20.5839267 -15.72861859 18.73112772 -16.37109375 14.6328125 C-16.489301 10.1687503 -16.54314445 6.99264353 -13.625 3.4375 C-9.31597346 -0.56373893 -5.71418497 -0.70106807 0 0 Z " fill="#F8FAFA" transform="translate(160,84)"/>
<path d="M0 0 C2 2 2 2 3 5 C0.8125 7.5625 0.8125 7.5625 -2 10 C-5.60967545 9.90975811 -8.69865134 8.41486371 -12 7 C-12.12375 8.134375 -12.2475 9.26875 -12.375 10.4375 C-12.684375 12.2009375 -12.684375 12.2009375 -13 14 C-15.95030389 15.47515195 -18.65495339 15.28692341 -21.9375 15.375 C-23.18402344 15.42398438 -24.43054688 15.47296875 -25.71484375 15.5234375 C-29 15 -29 15 -30.94140625 12.6640625 C-32 10 -32 10 -32 7 C-33.36125 7.7734375 -33.36125 7.7734375 -34.75 8.5625 C-38 10 -38 10 -40.3125 9.8125 C-42 9 -42 9 -43 7 C-42.01 6.67 -41.02 6.34 -40 6 C-40 5.34 -40 4.68 -40 4 C-37.31382597 1.9278086 -35.8082295 0.94226932 -32.375 1.1875 C-30 2 -30 2 -27 4 C-26.3125 6.625 -26.3125 6.625 -26 9 C-23.03 9 -20.06 9 -17 9 C-16.731875 8.05125 -16.46375 7.1025 -16.1875 6.125 C-15 3 -15 3 -12 1 C-9.48308421 1.32268151 -7.26531816 1.9063583 -4.875 2.75 C-3.946875 2.87375 -3.946875 2.87375 -3 3 C-1.22809091 1.64555699 -1.22809091 1.64555699 0 0 Z " fill="#EEF5F8" transform="translate(235,92)"/>
<path d="M0 0 C2.69990662 1.79993774 4.5418865 3.083773 6 6 C6.3724496 9.94796574 6.34935635 12.33040033 4.5 15.875 C1.58370525 18.35385054 -0.2724717 18.94445695 -4.03125 19.2109375 C-7.22582498 18.86866161 -8.85616798 17.27376123 -11 15 C-12.55024464 11.89951072 -12.28992015 9.42105782 -12 6 C-8.59923278 0.78549026 -6.21541624 -0.60935453 0 0 Z " fill="#2674A9" transform="translate(238,208)"/>
<path d="M0 0 C3.68435029 1.04736571 5.06058191 3.38348198 6.9375 6.55078125 C7.67240789 10.55194642 7.32564018 11.96857099 5.0625 15.36328125 C2.37052791 18.13442898 1.487107 18.47819165 -2.375 18.98828125 C-6.0625 18.55078125 -6.0625 18.55078125 -9 15.98828125 C-10.79111311 13.46525149 -11.12718531 12.182075 -11.6875 8.98828125 C-11.0625 5.55078125 -11.0625 5.55078125 -9.0625 2.61328125 C-5.74429675 0.33201652 -3.95169871 -0.26194973 0 0 Z " fill="#3278AC" transform="translate(295.0625,208.44921875)"/>
<path d="M0 0 C0.556875 0.309375 1.11375 0.61875 1.6875 0.9375 C5.66690632 2.76587588 8.79788161 3.40070613 13 2 C13.66 4.31 14.32 6.62 15 9 C11.7 9.33 8.4 9.66 5 10 C4.75765625 10.98742187 4.5153125 11.97484375 4.265625 12.9921875 C3.92793134 14.28667985 3.58934281 15.58093899 3.25 16.875 C2.92515625 18.15117187 2.6003125 19.42734375 2.265625 20.7421875 C1 24 1 24 -0.9375 25.46875 C-3.82141177 26.21157576 -6.13074034 25.65210447 -9 25 C-7.95035829 19.01704225 -6.19570043 13.61608698 -3.9375 8 C-3.6679248 7.3289624 -3.39834961 6.6579248 -3.12060547 5.96655273 C-1.14248346 1.14248346 -1.14248346 1.14248346 0 0 Z " fill="#4190C8" transform="translate(133,118)"/>
<path d="M0 0 C8.47748259 -0.87396728 8.47748259 -0.87396728 13 0 C17.42496672 3.86731952 19.59165787 8.36663148 21 14 C14.07 14 7.14 14 0 14 C0 9.38 0 4.76 0 0 Z " fill="#F1F6F7" transform="translate(283,178)"/>
<path d="M0 0 C0.66 0.99 1.32 1.98 2 3 C1.01 4.485 1.01 4.485 0 6 C-3.125 6.1875 -3.125 6.1875 -6 6 C-7.05404945 9.98196457 -6.84098656 12.98195309 -6 17 C-8.58148508 16.64393309 -9.82045747 16.16671807 -11.75 14.375 C-13.53246075 10.98832458 -13.52982976 8.77503705 -13 5 C-9.28814383 -0.45178875 -6.16005959 -0.80787667 0 0 Z " fill="#226C9F" transform="translate(297,209)"/>
<path d="M0 0 C1.11375 0.1546875 1.11375 0.1546875 2.25 0.3125 C2.58 1.6325 2.91 2.9525 3.25 4.3125 C1.93 5.3025 0.61 6.2925 -0.75 7.3125 C-0.42 8.6325 -0.09 9.9525 0.25 11.3125 C3.22 11.8075 3.22 11.8075 6.25 12.3125 C5.26 13.6325 4.27 14.9525 3.25 16.3125 C1.58157466 15.98808396 -0.08480481 15.65310811 -1.75 15.3125 C-2.4925 15.168125 -3.235 15.02375 -4 14.875 C-4.5775 14.689375 -5.155 14.50375 -5.75 14.3125 C-7.30024464 11.21201072 -7.03992015 8.73355782 -6.75 5.3125 C-3.9564149 0.4495926 -3.9564149 0.4495926 0 0 Z " fill="#2272A8" transform="translate(232.75,208.6875)"/>
<path d="M0 0 C3.51871354 1.75935677 5.43840711 3.08741156 7.5 6.4375 C8.11757776 9.60258604 7.45417918 11.17242938 6 14 C5.67 14 5.34 14 5 14 C4.7525 12.906875 4.505 11.81375 4.25 10.6875 C3.29527538 7.06947185 3.29527538 7.06947185 1.25 5.0625 C-1.81584645 3.61473918 -3.64397416 3.45207741 -7 4 C-10.41292944 6.5786578 -11.78790219 8.13529354 -12.8125 12.3125 C-12.9053125 13.6428125 -12.9053125 13.6428125 -13 15 C-14.5625 13.875 -14.5625 13.875 -16 12 C-16 7.89538555 -15.26839093 6.30968185 -12.5625 3.1875 C-8.5423333 -0.24434962 -5.19047522 -0.69463609 0 0 Z " fill="#F0F5F8" transform="translate(239,205)"/>
<path d="M0 0 C0.66 0.99 1.32 1.98 2 3 C2.99 3.33 3.98 3.66 5 4 C5.33 3.34 5.66 2.68 6 2 C7.38646021 4.20202504 7.99173953 5.69436261 8.0625 8.3125 C6.43694544 12.42419683 3.48206773 15.31815901 0 18 C-2.12109375 18.79296875 -2.12109375 18.79296875 -4 19 C-5.75 17.5625 -5.75 17.5625 -7 16 C-1.25 11 -1.25 11 1 11 C1.042721 9.33388095 1.04063832 7.66617115 1 6 C0.67 5.67 0.34 5.34 0 5 C-0.04063832 3.33382885 -0.042721 1.66611905 0 0 Z " fill="#F3F8F9" transform="translate(174,104)"/>
<path d="M0 0 C3.375 1.8125 3.375 1.8125 6 4 C6 4.99 6 5.98 6 7 C5.01 7 4.02 7 3 7 C2.34 6.34 1.68 5.68 1 5 C-4.5642187 4.38619666 -4.5642187 4.38619666 -9.4375 6.625 C-11.28765829 9.4372406 -11.69750921 11.67260127 -12 15 C-13.5625 13.875 -13.5625 13.875 -15 12 C-15.06788901 8.87710543 -14.81459236 6.88800039 -12.65625 4.53515625 C-8.30744565 0.85785846 -5.6894284 -0.54706042 0 0 Z " fill="#DAE8F0" transform="translate(296,205)"/>
<path d="M0 0 C2.1875 -0.3125 2.1875 -0.3125 5 0 C7.8125 2.5 7.8125 2.5 10 5 C6.62902617 6.49821059 4.79557881 7 1 7 C0.31292445 4.50935112 0 2.62113708 0 0 Z " fill="#E6F1F6" transform="translate(168,70)"/>
<path d="M0 0 C2.625 0.375 2.625 0.375 5 1 C5.625 2.875 5.625 2.875 6 5 C5.34 5.66 4.68 6.32 4 7 C1.375 6.625 1.375 6.625 -1 6 C-1.625 4.125 -1.625 4.125 -2 2 C-1.34 1.34 -0.68 0.68 0 0 Z " fill="#F0F5F8" transform="translate(233,214)"/>
<path d="M0 0 C2.625 0.375 2.625 0.375 5 1 C5.042721 2.66611905 5.04063832 4.33382885 5 6 C4 7 4 7 1.4375 7.0625 C0.2309375 7.0315625 0.2309375 7.0315625 -1 7 C-1.625 4.625 -1.625 4.625 -2 2 C-1.34 1.34 -0.68 0.68 0 0 Z " fill="#E9F2F5" transform="translate(291,214)"/>
<path d="M0 0 C3 1 3 1 4 3 C4.039992 4.99960012 4.04346799 7.00047242 4 9 C2.35 9.66 0.7 10.32 -1 11 C-2.25 3.375 -2.25 3.375 0 0 Z " fill="#2F76A8" transform="translate(298,212)"/>
<path d="M0 0 C9.57 0 19.14 0 29 0 C28.34 1.32 27.68 2.64 27 4 C26.34 3.34 25.68 2.68 25 2 C22.3817233 1.62826984 22.3817233 1.62826984 19.3359375 1.5859375 C18.21445313 1.54726563 17.09296875 1.50859375 15.9375 1.46875 C14.761875 1.4378125 13.58625 1.406875 12.375 1.375 C10.59996094 1.31699219 10.59996094 1.31699219 8.7890625 1.2578125 C5.85953309 1.16331155 2.93001403 1.07775442 0 1 C0 0.67 0 0.34 0 0 Z " fill="#559CCD" transform="translate(160,48)"/>
<path d="M0 0 C0.144375 0.61875 0.28875 1.2375 0.4375 1.875 C0.93152225 4.03258322 0.93152225 4.03258322 2 6 C-0.2747813 7.38111722 -1.50171361 8.05694702 -4.1875 7.75 C-6 7 -6 7 -7 5 C-6.01 4.67 -5.02 4.34 -4 4 C-4 3.34 -4 2.68 -4 2 C-2.68 1.34 -1.36 0.68 0 0 Z " fill="#E1EEF5" transform="translate(199,94)"/>
<path d="M0 0 C0.33 0.66 0.66 1.32 1 2 C1.66 2.33 2.32 2.66 3 3 C2.0409375 3.804375 2.0409375 3.804375 1.0625 4.625 C-1.38529404 7.44367193 -1.66714612 9.33860732 -2 13 C-3.5625 11.875 -3.5625 11.875 -5 10 C-4.91956698 6.21964825 -4.43199957 4.49745405 -1.9375 1.625 C-1.298125 1.08875 -0.65875 0.5525 0 0 Z " fill="#ECF3F6" transform="translate(286,207)"/>
<path d="M0 0 C0.99 1.485 0.99 1.485 2 3 C2.99 3.33 3.98 3.66 5 4 C5.33 3.34 5.66 2.68 6 2 C6.75 3.75 6.75 3.75 7 6 C5.0625 8.25 5.0625 8.25 3 10 C2.34 9.67 1.68 9.34 1 9 C0.5859375 6.93359375 0.5859375 6.93359375 0.375 4.4375 C0.30023438 3.61121094 0.22546875 2.78492187 0.1484375 1.93359375 C0.09945312 1.29550781 0.05046875 0.65742187 0 0 Z " fill="#DAE8F0" transform="translate(174,104)"/>
<path d="M0 0 C2 3 2 3 2 6 C2.99 6 3.98 6 5 6 C3.625 8 3.625 8 2 10 C1.34 10 0.68 10 0 10 C-0.74926071 6.33694766 -1.2380014 3.57644848 0 0 Z " fill="#3A7FB0" transform="translate(296,216)"/>
<path d="M0 0 C2.875 -0.125 2.875 -0.125 6 0 C6.66 0.66 7.32 1.32 8 2 C7.34 3.65 6.68 5.3 6 7 C4.68 6.34 3.36 5.68 2 5 C2.66 5 3.32 5 4 5 C3.73323796 3.01508358 3.73323796 3.01508358 3 1 C2.01 0.67 1.02 0.34 0 0 Z " fill="#4587B3" transform="translate(232,208)"/>
<path d="M0 0 C0.66 0 1.32 0 2 0 C3.14947895 3.55293493 3.0868937 4.79976669 1.5625 8.3125 C0.7890625 9.6428125 0.7890625 9.6428125 0 11 C-0.33 11 -0.66 11 -1 11 C-1.14285714 3.57142857 -1.14285714 3.57142857 0 0 Z " fill="#4994C5" transform="translate(299,259)"/>
<path d="M0 0 C1.65 0 3.3 0 5 0 C4.34 1.65 3.68 3.3 3 5 C1.35 4.67 -0.3 4.34 -2 4 C-1.34 2.68 -0.68 1.36 0 0 Z " fill="#4B91C6" transform="translate(182,83)"/>
<path d="M0 0 C-2.05233685 2.2477975 -3.00667261 3.0022242 -6 4 C-6 3.34 -6 2.68 -6 2 C-8.31 2 -10.62 2 -13 2 C-13 1.67 -13 1.34 -13 1 C-8.61414671 0.29826347 -4.44209357 -0.10834375 0 0 Z " fill="#59A3D0" transform="translate(289,342)"/>
<path d="M0 0 C2.125 0.9375 2.125 0.9375 4 2 C4 2.99 4 3.98 4 5 C3.01 5 2.02 5 1 5 C-0.6875 3 -0.6875 3 -2 1 C-1.34 0.67 -0.68 0.34 0 0 Z " fill="#E7F0F4" transform="translate(298,207)"/>
<path d="M0 0 C0.66 0.33 1.32 0.66 2 1 C1 4 1 4 -2.0625 5.6875 C-3.031875 6.120625 -4.00125 6.55375 -5 7 C-3.75023244 3.34683329 -3.32901247 2.21934164 0 0 Z " fill="#2D74A4" transform="translate(289,209)"/>
<path d="M0 0 C1.0326802 2.78823655 1.04509293 3.8677274 0.0625 6.75 C-0.288125 7.4925 -0.63875 8.235 -1 9 C-1.33 9 -1.66 9 -2 9 C-2.66 6.36 -3.32 3.72 -4 1 C-2 0 -2 0 0 0 Z " fill="#E5ECF0" transform="translate(246,210)"/>
<path d="M0 0 C1.485 0.99 1.485 0.99 3 2 C4.9896995 2.39013716 6.99019869 2.73202649 9 3 C8.67 3.66 8.34 4.32 8 5 C5.69 4.67 3.38 4.34 1 4 C0.67 2.68 0.34 1.36 0 0 Z " fill="#2D7AB1" transform="translate(229,222)"/>
<path d="M0 0 C0 0.66 0 1.32 0 2 C-0.66 2 -1.32 2 -2 2 C-2.28875 2.804375 -2.5775 3.60875 -2.875 4.4375 C-4 7 -4 7 -6 8 C-5.62403791 5.21788056 -5.32681541 3.4120716 -3.5625 1.1875 C-2 0 -2 0 0 0 Z " fill="#357EAF" transform="translate(232,209)"/>
<path d="M0 0 C1.15941038 3.47823115 0.70820884 5.45895578 0 9 C-1.5 7.75 -1.5 7.75 -3 6 C-3 4.68 -3 3.36 -3 2 C-2.01 1.34 -1.02 0.68 0 0 Z " fill="#E8EFF2" transform="translate(226,211)"/>
</svg>
